# xmcd
#
# Track frame offsets:
#	150
#	12422
#	23947
#	43525
#	57317
#	76802
#	88997
#	102862
#	118667
#	134557
#	148082
#	157915
#	170410
#	184440
#
# Disc length: 2667
#
# Revision: 3
# Processed by: cddbd v1.5.1PL0 Copyright (c) Steve Scherf et al.
# Submitted via: DiscPlay 4.0.4
# Normalized: r1:TDELIM( - ),TSWAP
#
DISCID=bf0a690e
DTITLE=Various Artist - Honky Tonk Boogie
DYEAR=1900
DGENRE=
TTITLE0=Hank Williams Jr. - Born To Boogie
TTITLE1=Steve Earle - Guitar Town
TTITLE2=The Mavericks - All You Ever Do Is Bring Me Down
TTITLE3=Marty Stuart - Honky Tonk Crowd
TTITLE4=Lee Roy Parnell - Oughta Be A Law
TTITLE5=Mark Chesnutt - It's A Little Too Late
TTITLE6=Jo-El Sonnier - All-American Saturday Night
TTITLE7=Joe Ely - Honky Tonkin'
TTITLE8=The Iguanas - My Girlfriend Is A Waitress
TTITLE9=Pirates Of The Mississippi - Honky Tonk Blues
TTITLE10=Marty Brown - Don't Worry Baby
TTITLE11=George Jones - Honky Tonk Song
TTITLE12=Delbert McClinton - Before You Accuse Me
TTITLE13=Waylon Jennings - Honky Tonk Heroes
EXTD=
EXTT0=
EXTT1=
EXTT2=
EXTT3=
EXTT4=
EXTT5=
EXTT6=
EXTT7=
EXTT8=
EXTT9=
EXTT10=
EXTT11=
EXTT12=
EXTT13=
PLAYORDER=
